<svg width="23" height="18" viewBox="0 0 23 18" fill="none" xmlns="http://www.w3.org/2000/svg">
<path d="M8.70597 17.147C13.0502 17.147 16.572 13.6253 16.572 9.28104C16.572 4.93677 13.0502 1.41504 8.70597 1.41504C4.36169 1.41504 0.839966 4.93677 0.839966 9.28104C0.839966 13.6253 4.36169 17.147 8.70597 17.147Z" stroke="#BB1212" stroke-width="1.5" stroke-miterlimit="10"/>
<path d="M22.1599 12.006C22.1599 14.845 19.8599 17.147 17.0189 17.147C14.1819 17.147 11.8789 14.845 11.8789 12.006C11.8789 9.16701 14.1819 6.86401 17.0189 6.86401C19.8599 6.86401 22.1599 9.16701 22.1599 12.006Z" fill="white"/>
<path d="M17.02 17.146C19.8587 17.146 22.16 14.8447 22.16 12.006C22.16 9.16722 19.8587 6.86597 17.02 6.86597C14.1813 6.86597 11.88 9.16722 11.88 12.006C11.88 14.8447 14.1813 17.146 17.02 17.146Z" stroke="#BB1212" stroke-width="1.5" stroke-miterlimit="10"/>
<path d="M8.70496 9.98305V6.67505" stroke="#BB1212" stroke-width="1.5" stroke-miterlimit="10" stroke-linecap="round"/>
<path d="M8.705 9.98315H5.396" stroke="#BB1212" stroke-width="1.5" stroke-miterlimit="10" stroke-linecap="round"/>
<path d="M17.6449 12.0485C18.0559 12.0485 18.4082 11.9115 18.6953 11.6374C18.9824 11.3634 19.1259 11.0176 19.1259 10.6131C19.1259 10.2021 18.9824 9.8563 18.6953 9.57575C18.4082 9.28868 18.0559 9.14515 17.6449 9.14515H15.9616V11.3765H15.4397V12.0485H15.9616V12.4856H15.4397V12.9945H15.9616V13.7122H16.7119V12.9945H18.2451V12.4856H16.7119V12.0485H17.6449ZM17.6449 9.84977C17.8537 9.84977 18.0233 9.92806 18.1603 10.0716C18.3038 10.2217 18.3756 10.4043 18.3756 10.6131C18.3756 10.8284 18.3038 11.0111 18.1603 11.1546C18.0233 11.3047 17.8537 11.3765 17.6449 11.3765H16.7119V9.84977H17.6449Z" fill="#BB1212"/>
</svg>
