<svg width="117" height="55" viewBox="0 0 117 55" fill="none" xmlns="http://www.w3.org/2000/svg">
<path d="M26.32 41.7901C27.2406 41.7901 27.987 41.0437 27.987 40.1231C27.987 39.2024 27.2406 38.4561 26.32 38.4561C25.3993 38.4561 24.653 39.2024 24.653 40.1231C24.653 41.0437 25.3993 41.7901 26.32 41.7901Z" fill="#BB1212"/>
<path d="M26.321 33.7409C30.077 33.7409 33.034 36.5269 33.052 40.0849C33.061 41.7729 32.419 43.3539 31.244 44.5369C29.988 45.8019 28.255 46.4999 26.349 46.5039C22.667 46.5039 19.634 43.6909 19.586 40.2329C19.564 38.5899 20.21 37.0139 21.406 35.7939C22.672 34.5019 24.443 33.7539 26.267 33.7409H26.321ZM26.321 31.9409C26.3 31.9409 26.278 31.9409 26.256 31.9409C21.56 31.9729 17.726 35.7399 17.787 40.2569C17.848 44.7109 21.67 48.3029 26.35 48.3029C26.355 48.3029 26.362 48.3029 26.367 48.3029C31.15 48.2939 34.877 44.6809 34.853 40.0739C34.829 35.5239 31.063 31.9409 26.321 31.9409Z" fill="#BB1212"/>
<path d="M94.1329 41.7901C95.0536 41.7901 95.7999 41.0437 95.7999 40.1231C95.7999 39.2024 95.0536 38.4561 94.1329 38.4561C93.2123 38.4561 92.4659 39.2024 92.4659 40.1231C92.4659 41.0437 93.2123 41.7901 94.1329 41.7901Z" fill="#BB1212"/>
<path d="M94.134 33.7409C97.891 33.7409 100.847 36.5269 100.865 40.0839C100.874 41.7719 100.231 43.3549 99.056 44.5369C97.8 45.8019 96.067 46.4999 94.16 46.5039C90.479 46.5039 87.446 43.6909 87.398 40.2329C87.376 38.5899 88.022 37.0139 89.218 35.7929C90.484 34.5019 92.255 33.7539 94.079 33.7409H94.134ZM94.134 31.9409C94.113 31.9409 94.09 31.9409 94.069 31.9409C89.373 31.9729 85.539 35.7399 85.6 40.2569C85.662 44.7109 89.484 48.3029 94.162 48.3029C94.168 48.3029 94.174 48.3029 94.18 48.3029C98.963 48.2939 102.69 44.6809 102.666 40.0739C102.642 35.5239 98.876 31.9409 94.134 31.9409Z" fill="#BB1212"/>
<path fill-rule="evenodd" clip-rule="evenodd" d="M105.007 42.2081C105.179 41.4311 105.303 40.4791 105.303 39.6481C105.303 33.5031 100.323 28.5231 94.178 28.5231C88.034 28.5231 83.053 33.5031 83.053 39.6481C83.053 40.4381 83.085 42.0341 83.085 42.0341C67.681 41.7231 52.141 41.4091 37.033 41.1001C37.126 40.5211 37.144 40.1351 37.144 39.5291C37.144 33.4141 32.186 28.4561 26.071 28.4561C19.955 28.4561 14.998 33.4141 14.998 39.5291C14.998 39.9861 15.026 40.4371 15.08 40.8801C13.201 40.0601 10.668 38.9161 8.93097 37.8351C8.29997 37.4411 7.81497 36.5001 7.65497 35.7291C7.37197 34.3641 7.39697 32.9361 7.27997 31.5361C7.21497 30.7661 7.36097 30.1581 8.09697 29.6921C8.42797 29.4841 8.72997 28.9201 8.71697 28.5271C8.64597 26.5461 8.64397 24.5341 8.27097 22.5991C7.96597 21.0151 8.07997 19.8381 9.52897 18.9641C9.82997 18.7831 10.05 18.4671 10.304 18.2091C12.892 15.5761 15.483 12.9441 18.067 10.3061C18.911 9.44611 19.904 8.94811 21.122 8.83811C27.142 8.30211 33.149 7.58811 39.18 7.23511C45.33 6.87511 51.483 7.28411 57.61 7.97011C62.864 8.55711 67.959 9.64211 72.627 12.3031C75.362 13.8631 78.159 15.3201 80.983 16.7131C83.217 17.8171 85.462 18.9921 87.833 19.7001C90.63 20.5371 93.593 20.7941 96.435 21.5041C100.325 22.4761 104.177 23.6071 108.025 24.7341C109.353 25.1231 110.213 26.0691 110.588 27.4511C110.958 28.8131 111.553 30.1311 111.781 31.5101C112.027 32.9861 112.135 34.5161 112.025 36.0191C111.638 41.3731 106.431 42.1061 105.007 42.2081Z" stroke="#BB1212" stroke-width="1.8" stroke-miterlimit="10"/>
<path d="M86.252 19.1548H8.854" stroke="#BB1212" stroke-width="1.8" stroke-miterlimit="10"/>
<path d="M53.879 7.5918V19.1548" stroke="#BB1212" stroke-width="1.8" stroke-miterlimit="10"/>
<path d="M35.772 7.5918L31.396 19.1548" stroke="#BB1212" stroke-width="1.8" stroke-miterlimit="10"/>
</svg>
