<svg width="124" height="46" viewBox="0 0 124 46" fill="none" xmlns="http://www.w3.org/2000/svg">
<path d="M97.1579 34.749C98.0781 34.749 98.8239 34.0031 98.8239 33.083C98.8239 32.1629 98.0781 31.417 97.1579 31.417C96.2378 31.417 95.4919 32.1629 95.4919 33.083C95.4919 34.0031 96.2378 34.749 97.1579 34.749Z" fill="#BB1212"/>
<path d="M97.159 26.7009C100.915 26.7009 103.872 29.4869 103.891 33.0439C103.9 34.7319 103.257 36.3149 102.082 37.4969C100.826 38.7619 99.093 39.4599 97.186 39.4639C93.505 39.4639 90.471 36.6509 90.423 33.1929C90.401 31.5499 91.048 29.9729 92.244 28.7529C93.51 27.4619 95.281 26.7139 97.104 26.7009H97.159ZM97.159 24.9009C97.138 24.9009 97.115 24.9009 97.094 24.9009C92.399 24.9329 88.565 28.6999 88.625 33.2169C88.687 37.6709 92.509 41.2629 97.188 41.2629C97.194 41.2629 97.2 41.2629 97.206 41.2629C101.989 41.2539 105.716 37.6409 105.692 33.0339C105.667 28.4839 101.902 24.9009 97.159 24.9009Z" fill="#BB1212"/>
<path d="M27.136 34.75C28.0567 34.75 28.803 34.0037 28.803 33.083C28.803 32.1624 28.0567 31.416 27.136 31.416C26.2153 31.416 25.469 32.1624 25.469 33.083C25.469 34.0037 26.2153 34.75 27.136 34.75Z" fill="#BB1212"/>
<path d="M27.138 26.7009C30.894 26.7009 33.851 29.4869 33.869 33.0449C33.878 34.7329 33.236 36.3139 32.061 37.4969C30.805 38.7619 29.072 39.4599 27.166 39.4639C23.484 39.4639 20.451 36.6509 20.403 33.1929C20.381 31.5499 21.027 29.9739 22.223 28.7539C23.489 27.4619 25.26 26.7139 27.084 26.7009H27.138ZM27.138 24.9009C27.117 24.9009 27.095 24.9009 27.073 24.9009C22.377 24.9329 18.543 28.6999 18.604 33.2169C18.665 37.6709 22.487 41.2629 27.167 41.2629C27.172 41.2629 27.179 41.2629 27.184 41.2629C31.967 41.2539 35.694 37.6409 35.669 33.0339C35.646 28.4839 31.879 24.9009 27.138 24.9009Z" fill="#BB1212"/>
<path fill-rule="evenodd" clip-rule="evenodd" d="M107.901 33.4008C107.901 27.2558 102.921 22.2758 96.7761 22.2758C90.6321 22.2758 85.6511 27.2558 85.6511 33.4008C85.6511 34.1978 85.7351 34.9738 85.8941 35.7228L85.9641 35.9818C68.8901 35.9818 37.5251 36.0128 37.5251 36.0128C37.7821 35.0888 37.9191 34.1158 37.9181 33.1098C37.9121 27.1558 33.0791 22.3338 27.1251 22.3398C21.1711 22.3458 16.3491 27.1788 16.3551 33.1328C16.3561 33.6588 16.4681 34.7618 16.4681 34.7618C13.7001 34.3708 11.5111 34.0258 8.76006 33.5288C8.02006 33.3948 7.24906 32.9178 6.67606 32.3738C4.37106 30.1838 3.58406 25.6428 4.84606 22.6408C5.78306 20.4098 6.68206 18.1578 7.53906 15.8898C8.06906 14.4858 8.91906 13.6418 10.3611 13.5468C12.7511 13.3898 15.1411 13.2428 17.5271 13.0268C18.1571 12.9698 18.8171 12.7818 19.3821 12.4788C27.4221 8.17582 35.9051 5.53782 44.8381 4.61082C51.8801 3.87982 58.8741 4.22282 65.5581 6.87282C69.6921 8.51182 73.6651 10.6418 77.6461 12.6938C79.5061 13.6528 80.6301 14.2648 83.4311 14.2568C84.5831 14.2528 85.7511 14.2918 86.9111 14.3548C93.4081 14.7088 99.8431 15.5228 106.134 17.3928C108.787 18.1818 111.316 19.2188 113.161 21.5648C115.856 24.9918 116.257 28.9308 115.272 33.1318C114.974 34.4058 114.063 35.0218 112.887 35.1978C112.42 35.2678 111.951 35.3208 111.482 35.3738C110.136 35.5228 109.032 35.6708 107.641 35.8228C107.642 35.8228 107.901 34.2218 107.901 33.4008Z" stroke="#BB1212" stroke-width="1.8" stroke-miterlimit="10"/>
<path d="M78.5449 13.145H16.299" stroke="#BB1212" stroke-width="1.8" stroke-miterlimit="10"/>
<path d="M44.212 4.68018L37.621 13.1452" stroke="#BB1212" stroke-width="1.8" stroke-miterlimit="10"/>
</svg>
