<svg width="35" height="26" viewBox="0 0 35 26" fill="none" xmlns="http://www.w3.org/2000/svg">
<path d="M7.45605 11.1841L8.45806 19.3281L10.2001 18.8501V11.1841H7.45605Z" stroke="#BB1212" stroke-width="1.8007" stroke-miterlimit="10"/>
<path d="M6.23706 6.26196L6.54206 10.27L19.9991 9.61496V7.13396L6.23706 6.26196Z" stroke="#BB1212" stroke-width="1.8007" stroke-miterlimit="10"/>
<path d="M20.652 8.26611H30.192" stroke="#BB1212" stroke-width="1.8007" stroke-miterlimit="10"/>
<path d="M10.2 16.801C10.2 16.801 17.604 17.454 16.863 10.269" stroke="#BB1212" stroke-width="1.8007" stroke-miterlimit="10"/>
<path d="M9.45596 19.0521C9.45596 19.0521 9.98295 23.4211 8.19695 23.9451C6.41095 24.4671 5.49596 23.2061 4.27696 19.9391C3.05696 16.6701 1.79396 16.7581 1.05396 18.6311" stroke="#BB1212" stroke-width="1.8007" stroke-miterlimit="10"/>
<path d="M31.542 6.26207L33.632 5.69507" stroke="#BB1212" stroke-width="1.8007" stroke-miterlimit="10"/>
<path d="M31.693 8.57104H33.872" stroke="#BB1212" stroke-width="1.8007" stroke-miterlimit="10"/>
<path d="M31.693 10.5959L33.48 11.2499" stroke="#BB1212" stroke-width="1.8007" stroke-miterlimit="10"/>
<path d="M30.192 6.82788V9.60388" stroke="#BB1212" stroke-width="1.8007" stroke-miterlimit="10"/>
</svg>
