<svg width="120" height="56" viewBox="0 0 120 56" fill="none" xmlns="http://www.w3.org/2000/svg">
<path d="M24.772 42.8003C25.6926 42.8003 26.439 42.054 26.439 41.1333C26.439 40.2126 25.6926 39.4663 24.772 39.4663C23.8513 39.4663 23.105 40.2126 23.105 41.1333C23.105 42.054 23.8513 42.8003 24.772 42.8003Z" fill="#BB1212"/>
<path d="M24.773 34.7512C28.53 34.7512 31.486 37.5372 31.505 41.0952C31.514 42.7832 30.872 44.3642 29.697 45.5472C28.441 46.8122 26.708 47.5102 24.802 47.5142C21.12 47.5142 18.087 44.7012 18.039 41.2432C18.017 39.6002 18.663 38.0242 19.859 36.8032C21.124 35.5122 22.896 34.7642 24.719 34.7512H24.773ZM24.773 32.9512C24.752 32.9512 24.73 32.9512 24.708 32.9512C20.013 32.9832 16.178 36.7502 16.24 41.2672C16.301 45.7212 20.123 49.3132 24.803 49.3132C24.808 49.3132 24.815 49.3132 24.82 49.3132C29.603 49.3042 33.33 45.6912 33.306 41.0842C33.281 36.5342 29.515 32.9512 24.773 32.9512Z" fill="#BB1212"/>
<path d="M91.084 42.9253C92.0047 42.9253 92.751 42.179 92.751 41.2583C92.751 40.3376 92.0047 39.5913 91.084 39.5913C90.1633 39.5913 89.417 40.3376 89.417 41.2583C89.417 42.179 90.1633 42.9253 91.084 42.9253Z" fill="#BB1212"/>
<path d="M91.086 34.8762C94.842 34.8762 97.798 37.6622 97.816 41.2202C97.825 42.9082 97.183 44.4892 96.008 45.6722C94.752 46.9372 93.019 47.6352 91.112 47.6392C87.43 47.6392 84.397 44.8262 84.35 41.3682C84.328 39.7262 84.973 38.1502 86.169 36.9302C87.435 35.6382 89.206 34.8902 91.031 34.8772H91.086V34.8762ZM91.086 33.0762C91.065 33.0762 91.042 33.0762 91.021 33.0762C86.325 33.1082 82.49 36.8752 82.552 41.3922C82.613 45.8462 86.435 49.4382 91.114 49.4382C91.12 49.4382 91.126 49.4382 91.132 49.4382C95.915 49.4292 99.642 45.8162 99.617 41.2092C99.593 36.6592 95.828 33.0762 91.086 33.0762Z" fill="#BB1212"/>
<path d="M53.583 7.89014V19.1821" stroke="#BB1212" stroke-width="1.8" stroke-miterlimit="10"/>
<path d="M35.901 7.89014L31.629 19.1821" stroke="#BB1212" stroke-width="1.8" stroke-miterlimit="10"/>
<path fill-rule="evenodd" clip-rule="evenodd" d="M102.194 42.3261C102.271 41.7941 102.311 41.2511 102.311 40.6981C102.311 34.4731 97.265 29.4271 91.04 29.4271C84.815 29.4271 79.769 34.4741 79.769 40.6981C79.769 41.1141 79.848 42.0051 79.848 42.0051C68.07 42.0051 56.048 42.0141 44.269 41.9971C41.672 41.9911 38.662 41.8231 36.065 41.7511L36.056 41.1641C36.056 34.9181 30.992 29.8531 24.745 29.8531C18.709 29.8531 13.777 34.5821 13.451 40.5361C13.451 40.5361 10.183 39.9521 8.74505 39.2371C7.17505 38.4591 6.05205 37.3211 5.87005 35.4551C5.66405 33.3291 5.71805 33.2011 7.50405 32.3281C7.46605 30.5831 9.22105 23.4471 9.19805 21.9831C9.16905 20.1931 9.84405 18.6421 11.37 17.6591C12.33 17.0421 13.088 16.2391 13.921 15.4981C15.257 14.3101 16.611 13.1441 17.959 11.9701C18.095 11.8511 18.235 11.7381 18.351 11.6401C18.067 11.3011 17.811 10.9971 17.526 10.6581C17.526 10.6581 29.119 8.77514 34.344 8.37114C41.967 7.78114 49.588 7.62114 57.197 8.54714C61.686 9.09414 66.043 10.1811 69.976 12.4801C73.399 14.4811 76.708 16.6741 80.075 18.7721C80.329 18.9301 80.622 19.0911 80.908 19.1181C83.432 19.3521 85.968 19.4901 88.485 19.7821C93.534 20.3721 98.487 21.4151 103.244 23.2611C105.981 24.3241 108.634 25.5621 111.029 27.2831C112.069 28.0321 112.235 28.6831 111.851 29.8821C111.714 30.3091 111.627 30.7711 111.623 31.2181C111.6 33.4011 111.637 35.5861 111.6 37.7691C111.587 38.5411 111.702 39.1571 112.385 39.6551C112.979 40.0861 112.971 40.7461 112.383 41.1861C111.914 41.5361 111.345 41.7861 110.785 41.9781C108.099 42.8961 102.194 42.3261 102.194 42.3261Z" stroke="#BB1212" stroke-width="1.8" stroke-miterlimit="10"/>
<path d="M80.076 18.771H9.948" stroke="#BB1212" stroke-width="1.8" stroke-miterlimit="10"/>
</svg>
