<svg width="124" height="46" viewBox="0 0 124 46" fill="none" xmlns="http://www.w3.org/2000/svg">
<path d="M8.46805 32.8428C8.46805 32.8428 4.66205 26.4998 6.81905 20.9198C7.53905 19.0578 8.86805 20.7268 9.35605 19.5238C9.99305 17.9558 10.123 15.5728 10.136 14.1058C10.143 13.3238 11.069 12.8018 11.069 12.8018H12.781H80.894C80.894 12.8018 105.332 14.5728 111.971 19.9058C119.707 26.1208 116.663 32.4628 115.522 33.7308C114.381 34.9988 113.619 35.3788 111.844 35.3788C110.067 35.3788 107.68 35.3788 107.68 35.3788C107.68 35.3788 108.701 22.3108 97.017 22.3108C84.701 22.3108 85.785 34.7298 85.785 34.7298L39.118 34.8678C39.118 34.8678 39.41 22.7268 27.868 22.7268C16.904 22.7268 17.18 34.4168 17.18 34.4168C17.18 34.4168 10.497 35.1248 8.46805 32.8428Z" stroke="#BB1212" stroke-width="1.8" stroke-miterlimit="10"/>
<path d="M16.902 12.8021C27.176 10.4121 23.508 10.2311 29.079 7.99307C33.368 6.27107 38.246 4.74707 42.08 4.74707C50.895 4.74707 60.915 4.74707 60.915 4.74707C60.915 4.74707 66.148 5.06407 68.621 6.39507C71.095 7.72707 81.464 12.8011 81.464 12.8011" stroke="#BB1212" stroke-width="1.8" stroke-miterlimit="10"/>
<path d="M28.128 41.7061C32.506 41.7061 36.055 38.157 36.055 33.7791C36.055 29.4011 32.506 25.8521 28.128 25.8521C23.7501 25.8521 20.201 29.4011 20.201 33.7791C20.201 38.157 23.7501 41.7061 28.128 41.7061Z" stroke="#BB1212" stroke-width="1.8" stroke-miterlimit="10"/>
<path d="M97.016 41.7061C101.394 41.7061 104.943 38.157 104.943 33.7791C104.943 29.4011 101.394 25.8521 97.016 25.8521C92.638 25.8521 89.089 29.4011 89.089 33.7791C89.089 38.157 92.638 41.7061 97.016 41.7061Z" stroke="#BB1212" stroke-width="1.8" stroke-miterlimit="10"/>
<path d="M28.128 34.7301C28.6532 34.7301 29.079 34.3043 29.079 33.7791C29.079 33.2539 28.6532 32.8281 28.128 32.8281C27.6028 32.8281 27.177 33.2539 27.177 33.7791C27.177 34.3043 27.6028 34.7301 28.128 34.7301Z" fill="#BB1212" stroke="#BB1212" stroke-miterlimit="10"/>
<path d="M97.0159 34.7311C97.5412 34.7311 97.9669 34.3053 97.9669 33.7801C97.9669 33.2549 97.5412 32.8291 97.0159 32.8291C96.4907 32.8291 96.0649 33.2549 96.0649 33.7801C96.0649 34.3053 96.4907 34.7311 97.0159 34.7311Z" fill="#BB1212" stroke="#BB1212" stroke-miterlimit="10"/>
<path d="M51.054 4.74707L53.305 12.8021" stroke="#BB1212" stroke-width="1.8" stroke-miterlimit="10"/>
<path d="M31.334 7.13086C31.334 7.13086 31.072 12.8019 33.355 12.8019" stroke="#BB1212" stroke-width="1.8" stroke-miterlimit="10"/>
</svg>
