<svg width="116" height="52" viewBox="0 0 116 52" fill="none" xmlns="http://www.w3.org/2000/svg">
<path d="M60.499 7.55615V17.2262" stroke="#BB1212" stroke-width="2" stroke-miterlimit="10"/>
<path d="M28.225 39.2222C29.1456 39.2222 29.892 38.4758 29.892 37.5552C29.892 36.6345 29.1456 35.8882 28.225 35.8882C27.3043 35.8882 26.558 36.6345 26.558 37.5552C26.558 38.4758 27.3043 39.2222 28.225 39.2222Z" fill="#BB1212"/>
<path d="M28.226 31.173C31.982 31.173 34.939 33.959 34.957 37.517C34.966 39.205 34.324 40.786 33.149 41.969C31.893 43.234 30.159 43.932 28.253 43.936C24.572 43.936 21.538 41.123 21.491 37.665C21.469 36.022 22.115 34.446 23.311 33.226C24.577 31.934 26.348 31.186 28.172 31.173H28.226ZM28.226 29.373C28.205 29.373 28.183 29.373 28.161 29.373C23.465 29.405 19.631 33.172 19.692 37.689C19.753 42.143 23.575 45.735 28.254 45.735C28.259 45.735 28.266 45.735 28.271 45.735C33.055 45.726 36.781 42.113 36.757 37.506C36.734 32.956 32.968 29.373 28.226 29.373Z" fill="#BB1212"/>
<path d="M92.062 39.2222C92.9827 39.2222 93.729 38.4758 93.729 37.5552C93.729 36.6345 92.9827 35.8882 92.062 35.8882C91.1414 35.8882 90.395 36.6345 90.395 37.5552C90.395 38.4758 91.1414 39.2222 92.062 39.2222Z" fill="#BB1212"/>
<path d="M92.063 31.173C95.82 31.173 98.776 33.959 98.794 37.517C98.803 39.205 98.161 40.786 96.986 41.969C95.73 43.234 93.997 43.932 92.09 43.936C88.408 43.936 85.374 41.123 85.327 37.665C85.305 36.022 85.951 34.446 87.147 33.226C88.413 31.934 90.184 31.186 92.008 31.173H92.063ZM92.063 29.373C92.042 29.373 92.019 29.373 91.998 29.373C87.303 29.405 83.468 33.172 83.529 37.689C83.59 42.143 87.412 45.735 92.092 45.735C92.098 45.735 92.104 45.735 92.11 45.735C96.893 45.726 100.62 42.113 100.595 37.506C100.571 32.956 96.805 29.373 92.063 29.373Z" fill="#BB1212"/>
<path d="M84.6561 17.1919H9.82605" stroke="#BB1212" stroke-width="2" stroke-miterlimit="10"/>
<path d="M39.006 6.21777L33.517 17.1918" stroke="#BB1212" stroke-width="2" stroke-miterlimit="10"/>
<path fill-rule="evenodd" clip-rule="evenodd" d="M39.5431 37.5121C39.5431 31.2411 34.4601 26.1581 28.1891 26.1581C21.9181 26.1581 16.8351 31.2411 16.8351 37.5121C16.8351 38.0851 16.8771 38.6481 16.9591 39.1971C16.9591 39.1971 13.2471 39.2841 11.3451 39.2581C8.89606 39.2241 7.28506 38.8221 6.13806 36.5381C5.48006 35.2331 4.91906 33.9691 5.13606 32.5721C5.28806 31.5801 5.83106 30.6201 6.32806 29.7131C7.22806 28.0731 7.31906 26.3411 6.85006 24.6301C6.10206 21.9061 7.52706 19.9721 9.01706 18.0611C9.68406 17.2071 16.8701 10.2741 16.8701 10.2741C22.6001 7.74111 31.0001 5.46111 48.2321 6.45911C55.8521 6.74211 63.4421 7.40011 70.8471 9.42011C75.3181 10.6371 80.6551 14.9631 84.6561 17.1941C86.2861 18.1021 87.8101 19.2261 89.5051 19.9671C90.8301 20.5491 92.3611 20.6381 93.7701 21.0521C96.8231 21.9481 99.8931 22.8061 102.883 23.8801C105.244 24.7291 107.401 25.9931 108.61 28.3911C109.137 29.4371 109.881 30.4081 110.215 31.5081C110.569 32.6661 110.574 33.9361 110.674 35.1621C110.688 35.3551 110.338 35.5511 110.242 35.7811C109.997 36.3631 109.494 37.0641 109.648 37.5411C109.934 38.4201 109.523 38.6151 108.919 38.7501C108.049 38.9431 107.164 39.1511 106.278 39.1791C104.623 39.2311 102.942 39.2851 102.942 39.2851C102.942 39.2851 103.075 38.1401 103.075 37.5561C103.075 31.4111 98.0951 26.4311 91.9501 26.4311C85.8051 26.4311 80.8251 31.4111 80.8251 37.5561L80.9421 39.1741C66.0631 39.1741 54.2171 39.1741 39.4201 39.1741C39.4211 39.1731 39.5431 38.0761 39.5431 37.5121Z" stroke="#BB1212" stroke-width="1.8" stroke-miterlimit="10"/>
</svg>
