<svg width="103" height="52" viewBox="0 0 103 52" fill="none" xmlns="http://www.w3.org/2000/svg">
<path fill-rule="evenodd" clip-rule="evenodd" d="M62.8929 38.5769C55.4969 38.5769 48.1399 38.5769 40.7129 38.5769C40.6589 34.4089 39.0519 30.9909 35.6489 28.5159C33.3469 26.8409 30.7369 26.1299 27.9029 26.2989C21.7809 26.6629 16.4579 31.8989 16.5969 38.6779C16.0809 38.2049 15.6489 37.7659 15.1669 37.3889C14.9429 37.2129 14.6229 37.0739 14.3439 37.0689C12.6639 37.0399 10.9829 37.0539 9.25793 37.0539C9.25793 35.2589 9.25793 33.5099 9.25793 31.6929C10.2019 31.6929 11.1509 31.6929 12.1439 31.6929C12.3899 29.9949 12.6289 28.3519 12.8669 26.7119C13.6849 21.0749 14.4839 15.4369 15.3279 9.80494C15.6319 7.78694 16.3669 7.08994 18.3869 7.00994C20.3599 6.93194 22.3399 6.99794 24.3139 7.05094C33.8859 7.30894 43.4579 7.58194 53.0299 7.85494C53.7509 7.87494 54.5929 7.71294 55.1589 8.02994C55.7019 8.33194 55.9639 9.14394 56.3369 9.73894C57.9579 12.3269 59.5799 14.9139 61.1829 17.5129C61.4189 17.8939 61.6859 18.0889 62.1399 18.1419C66.5349 18.6479 70.9269 19.1749 75.3199 19.6989C78.1769 20.0409 81.0339 20.3859 83.8899 20.7339C85.1029 20.8819 86.0949 21.4529 86.7689 22.4639C87.3739 23.3739 87.9289 24.3219 88.4309 25.2929C89.4379 27.2389 90.4059 29.2049 91.3609 31.1769C91.5519 31.5729 91.7789 31.7049 92.2119 31.6879C93.1449 31.6539 94.0799 31.6779 95.0469 31.6779C95.0469 33.4769 95.0469 35.2139 95.0469 37.0249C94.8459 37.0349 94.6409 37.0539 94.4359 37.0539C93.1829 37.0569 91.9299 37.0399 90.6759 37.0679C90.4589 37.0739 90.1359 37.1929 90.0479 37.3589C89.4179 38.5419 88.4109 38.7929 87.1979 38.6039C87.1399 38.5949 87.0829 38.5869 86.9609 38.5689C86.9109 34.2599 85.1909 30.7799 81.6049 28.3169C79.2949 26.7319 76.7049 26.0909 73.9149 26.3199C67.7929 26.8209 62.8399 31.9209 62.8929 38.5769Z" stroke="#BB1212" stroke-width="1.8" stroke-miterlimit="10"/>
<path d="M8.77094 12.6569C8.91094 12.6769 9.05194 12.6959 9.19594 12.7159C9.73994 12.7919 10.2989 12.8689 10.8549 12.9619C10.3519 16.4139 9.84694 19.8659 9.34094 23.3169L8.83294 26.7849L8.76294 27.2769C8.73194 27.4989 8.70094 27.7199 8.66494 27.9519C7.99394 27.8609 7.30594 27.7539 6.58094 27.6269C7.30594 22.6409 8.03494 17.6549 8.77094 12.6569ZM8.53494 10.8159C7.66894 10.8159 7.15794 11.2549 7.04194 12.0429C6.26994 17.2869 5.50294 22.5319 4.74094 27.7779C4.62294 28.5899 5.02594 29.1739 5.81794 29.3189C6.79894 29.4979 7.78394 29.6549 8.77394 29.7819C8.86194 29.7939 8.94694 29.7989 9.02894 29.7989C9.77194 29.7989 10.2639 29.3409 10.3939 28.5549C10.4769 28.0529 10.5409 27.5479 10.6149 27.0439C11.3089 22.3029 12.0039 17.5619 12.6949 12.8189C12.8089 12.0319 12.4339 11.4179 11.6869 11.2799C10.6299 11.0849 9.56094 10.9549 8.63094 10.8179C8.59894 10.8169 8.56694 10.8159 8.53494 10.8159Z" fill="#BB1212"/>
<path d="M28.6279 39.773C29.5602 39.773 30.3159 39.0172 30.3159 38.085C30.3159 37.1527 29.5602 36.397 28.6279 36.397C27.6957 36.397 26.9399 37.1527 26.9399 38.085C26.9399 39.0172 27.6957 39.773 28.6279 39.773Z" fill="#BB1212"/>
<path d="M28.627 31.5979H28.68C30.534 31.6109 32.334 32.3698 33.62 33.6838C34.836 34.9248 35.494 36.5279 35.471 38.1979C35.423 41.7129 32.339 44.5718 28.584 44.5718C26.661 44.5679 24.899 43.8579 23.623 42.5729C22.429 41.3709 21.776 39.7619 21.785 38.0469C21.804 34.4299 24.81 31.5979 28.627 31.5979ZM28.627 29.7979C23.825 29.7979 20.009 33.4279 19.985 38.0359C19.961 42.7029 23.735 46.3618 28.581 46.3708C28.587 46.3708 28.592 46.3708 28.598 46.3708C33.337 46.3708 37.209 42.7309 37.271 38.2219C37.334 33.6459 33.449 29.8299 28.692 29.7979C28.671 29.7979 28.649 29.7979 28.627 29.7979Z" fill="#BB1212"/>
<path d="M74.9619 39.148C75.8942 39.148 76.6499 38.3922 76.6499 37.46C76.6499 36.5277 75.8942 35.772 74.9619 35.772C74.0297 35.772 73.2739 36.5277 73.2739 37.46C73.2739 38.3922 74.0297 39.148 74.9619 39.148Z" fill="#BB1212"/>
<path d="M74.961 30.9729H75.014C76.868 30.9859 78.669 31.7448 79.955 33.0588C81.171 34.2998 81.828 35.9028 81.806 37.5718C81.757 41.0878 78.673 43.9468 74.917 43.9468C72.995 43.9429 71.233 43.2329 69.957 41.9479C68.763 40.7459 68.109 39.1379 68.118 37.4219C68.138 33.8059 71.143 30.9729 74.961 30.9729ZM74.961 29.1729C70.159 29.1729 66.343 32.8029 66.318 37.4109C66.295 42.0779 70.069 45.7368 74.914 45.7458C74.92 45.7458 74.926 45.7458 74.932 45.7458C79.67 45.7458 83.543 42.1059 83.606 37.5969C83.669 33.0209 79.784 29.2049 75.027 29.1729C75.004 29.1729 74.982 29.1729 74.961 29.1729Z" fill="#BB1212"/>
<path d="M62.1389 18.1411H13.6329" stroke="#BB1212" stroke-width="1.8" stroke-miterlimit="10"/>
<path d="M40.7489 7.50488V18.1409" stroke="#BB1212" stroke-width="1.8" stroke-miterlimit="10"/>
</svg>
